<svg width="397" height="395" viewBox="0 0 397 395" fill="none" xmlns="http://www.w3.org/2000/svg">
<g clip-path="url(#clip0_41_2)">
<path fill-rule="evenodd" clip-rule="evenodd" d="M197.38 328.87C270.04 328.87 329.31 269.58 329.31 196.87C329.31 124.16 270.04 64.97 197.38 64.97C124.72 64.97 65.4301 124.26 65.4301 196.91C65.4301 269.56 124.75 328.87 197.38 328.87Z" fill="#4484AA"/>
<path fill-rule="evenodd" clip-rule="evenodd" d="M193.43 71.86L190.59 71.61L187.77 71.86V71.45C182.87 71.09 178.77 70.8 177.19 70.8C181.93 62.17 188.56 63.01 184.19 17.13C170.99 15.41 174.48 1.83997 179.19 0.189971C187.89 -0.200029 192.27 0.389971 200.85 0.189971C204.42 0.659971 209.29 15.1 196.97 17.13C192.62 63.01 199.25 62.13 203.97 70.8C202.42 70.8 198.3 71.09 193.4 71.45L193.43 71.86Z" fill="#4484AA"/>
<path fill-rule="evenodd" clip-rule="evenodd" d="M193.43 71.86L190.59 71.61L187.77 71.86V71.45C182.87 71.09 178.77 70.8 177.19 70.8C181.93 62.17 188.56 63.01 184.19 17.13C170.99 15.41 174.48 1.83997 179.19 0.189971C187.89 -0.200029 192.27 0.389971 200.85 0.189971C204.42 0.659971 209.29 15.1 196.97 17.13C192.62 63.01 199.25 62.13 203.97 70.8C202.42 70.8 198.3 71.09 193.4 71.45L193.43 71.86Z" fill="#4484AA"/>
<path fill-rule="evenodd" clip-rule="evenodd" d="M235.54 77.5L232.94 76.35L230.2 75.6L230.34 75.19C225.85 73.19 222.05 71.57 220.59 71.05C227.93 64.51 233.9 67.49 245.08 22.78C233.2 16.78 241.01 5.14 245.99 5.13C254.33 7.66 258.25 9.68001 266.42 12.35C269.62 13.98 269.42 29.22 257.12 27.02C237.75 68.85 244.27 70.28 245.87 80.02C244.41 79.5 240.42 78.37 235.68 77.1L235.54 77.5Z" fill="#4484AA"/>
<path fill-rule="evenodd" clip-rule="evenodd" d="M273.36 96.84L271.29 94.89L268.95 93.28L269.23 92.93C265.65 89.57 262.62 86.76 261.41 85.79C270.51 82.06 275.15 86.87 300.57 48.42C291.38 38.8 302.57 30.42 307.3 32.09C314.3 37.24 317.36 40.46 324.17 45.69C326.65 48.3 321.38 62.59 310.51 56.42C278.32 89.42 284 92.93 282.27 102.62C281.07 101.62 277.68 99.27 273.64 96.48L273.36 96.84Z" fill="#4484AA"/>
<path fill-rule="evenodd" clip-rule="evenodd" d="M302.59 127.67L301.29 125.14L299.61 122.85L299.99 122.62C297.74 118.25 295.81 114.62 294.99 113.28C304.82 112.8 307.6 118.86 344.37 91.08C338.91 78.94 352.27 74.8 356.15 77.92C361.05 85.11 362.84 89.16 367.53 96.36C369 99.63 359.26 111.36 351.06 101.94C309.74 122.33 313.92 127.53 309.06 136.08C308.25 134.78 305.85 131.42 302.96 127.44L302.59 127.67Z" fill="#4484AA"/>
<path fill-rule="evenodd" clip-rule="evenodd" d="M319.88 166.45L319.5 163.62L318.69 160.9L319.12 160.81C318.45 155.95 317.84 151.81 317.51 150.34C326.94 153.16 327.51 159.81 371.46 145.85C370.35 132.58 384.34 133.13 386.96 137.36C389.18 145.77 389.53 150.19 391.54 158.54C391.84 162.12 378.76 169.94 374.16 158.31C328.4 163.78 330.61 170.09 323.16 176.54C322.83 175.04 321.69 171.05 320.29 166.35L319.88 166.45Z" fill="#4484AA"/>
<path fill-rule="evenodd" clip-rule="evenodd" d="M323.28 208.83L323.85 206.04L323.98 203.19L324.43 203.25C325.43 198.45 326.2 194.4 326.43 192.85C334.38 198.64 332.72 205.12 378.78 206.57C382.15 193.7 395.16 198.86 396.23 203.72C395.52 212.41 394.37 216.72 393.5 225.22C392.59 228.69 377.64 231.71 377.18 219.22C332.18 209.14 332.18 215.82 323.05 219.44C323.24 217.9 323.49 213.78 323.74 208.88L323.28 208.83Z" fill="#4484AA"/>
<path fill-rule="evenodd" clip-rule="evenodd" d="M312.37 249.89L313.85 247.45L314.91 244.83L315.31 245.02C317.84 240.83 319.94 237.24 320.64 235.86C326.22 243.98 322.49 249.53 365.45 266.23C372.91 255.23 383.45 264.41 382.84 269.36C379.29 277.3 376.84 280.94 373.12 288.72C371.12 291.72 356 289.57 359.72 277.64C320.67 253.17 318.44 259.46 308.61 259.82C309.3 258.44 310.91 254.62 312.77 250.09L312.37 249.89Z" fill="#4484AA"/>
<path fill-rule="evenodd" clip-rule="evenodd" d="M288.43 284.97L290.62 283.19L292.51 281.05L292.82 281.37C296.6 278.24 299.77 275.57 300.89 274.52C303.45 284.01 298.09 288.01 333.02 318.06C343.74 310.16 350.62 322.33 348.39 326.79C342.39 333.11 338.82 335.71 332.77 341.79C329.89 343.92 316.35 336.89 323.84 326.88C295.16 290.8 290.96 295.98 281.56 293.07C282.69 291.99 285.47 288.92 288.73 285.26L288.43 284.97Z" fill="#4484AA"/>
<path fill-rule="evenodd" clip-rule="evenodd" d="M254.16 310.08L256.84 309.13L259.32 307.75L259.5 308.16C264.11 306.46 267.98 305.02 269.39 304.38C268.65 314.18 262.26 316.16 285.21 356.15C297.93 352.25 300.37 366.03 296.79 369.49C289.02 373.44 284.79 374.71 277.05 378.49C273.62 379.49 263.21 368.41 273.59 361.49C258.59 317.92 252.87 321.42 244.99 315.49C246.4 314.85 250.04 312.9 254.34 310.49L254.16 310.08Z" fill="#4484AA"/>
<path fill-rule="evenodd" clip-rule="evenodd" d="M213.49 322.36H216.33L219.13 321.91V322.35C224.04 322.29 228.18 322.21 229.71 322.07C225.71 331.07 219.07 330.82 227.4 376.16C240.69 376.72 238.4 390.53 233.87 392.6C225.24 393.75 220.82 393.54 212.28 394.47C208.69 394.32 202.58 380.37 214.68 377.27C215.01 331.17 208.49 332.58 203.02 324.41C204.56 324.27 208.65 323.64 213.49 322.83V322.36Z" fill="#4484AA"/>
<path fill-rule="evenodd" clip-rule="evenodd" d="M171.05 320.39L173.74 321.33L176.54 321.82L176.43 322.24C181.07 323.84 185.01 325.12 186.5 325.52C179.76 332.69 173.55 330.22 166.31 375.74C178.65 380.74 171.89 392.96 166.93 393.4C158.41 391.61 154.33 389.94 145.93 387.99C142.61 386.65 141.48 371.44 153.93 372.55C169.59 329.22 162.93 328.35 160.53 318.83C162.02 319.21 166.08 319.97 170.92 320.83L171.05 320.39Z" fill="#4484AA"/>
<path fill-rule="evenodd" clip-rule="evenodd" d="M131.69 304.45L133.92 306.22L136.4 307.62L136.14 307.98C140 310.98 143.26 313.55 144.55 314.41C135.81 318.93 130.77 314.53 108.79 355.04C118.79 363.84 108.33 373.15 103.5 371.91C96.06 367.38 92.77 364.44 85.5 359.82C82.81 357.44 86.81 342.73 98.18 347.92C127.37 312.27 121.4 309.25 122.28 299.46C123.57 300.34 127.15 302.4 131.42 304.81L131.69 304.45Z" fill="#4484AA"/>
<path fill-rule="evenodd" clip-rule="evenodd" d="M99.89 276.25L101.4 278.67L103.27 280.81L102.92 281.06C105.53 285.22 107.78 288.69 108.7 289.93C98.96 291.28 95.7 285.46 61.46 316.34C67.95 327.96 54.99 333.25 50.85 330.49C45.35 323.73 43.22 319.88 37.92 313.1C36.17 309.96 44.84 297.42 53.84 306.1C93.23 282.2 88.61 277.38 92.75 268.45C93.67 269.69 96.35 272.84 99.57 276.54L99.89 276.25Z" fill="#4484AA"/>
<path fill-rule="evenodd" clip-rule="evenodd" d="M79.2899 239.11L79.8999 241.87L80.9599 244.52L80.5299 244.64C81.6199 249.44 82.5899 253.45 83.0399 254.94C73.4099 252.94 72.2399 246.39 29.6999 264.11C31.9599 277.23 17.9699 277.91 14.9899 273.92C12.0399 265.72 11.3199 261.37 8.57994 253.23C7.97994 249.68 20.3299 240.75 25.9199 251.92C71.0299 242.49 68.2699 236.39 75.1099 229.33C75.5699 230.82 77.0499 234.67 78.8599 239.24L79.2899 239.11Z" fill="#4484AA"/>
<path fill-rule="evenodd" clip-rule="evenodd" d="M72.22 197.21L71.88 200.04L72 202.87H71.55C70.99 207.75 70.55 211.87 70.5 213.41C62.06 208.33 63.15 201.75 17.13 204.29C14.89 217.45 1.48004 213.45 0.0100399 208.63C-0.0499601 199.93 0.72004 195.58 0.85004 186.98C1.47004 183.45 16.09 179.13 17.62 191.53C63.31 197.66 62.73 191 71.54 186.61C71.47 188.15 71.59 192.28 71.77 197.19L72.22 197.21Z" fill="#4484AA"/>
<path fill-rule="evenodd" clip-rule="evenodd" d="M84.15 144.09L82.65 146.5L81.56 149.12L81.15 148.91C78.58 153.1 76.45 156.64 75.74 158.02C70.24 149.87 74.02 144.35 31.23 127.21C23.66 138.21 13.23 128.87 13.86 123.92C17.5 116.01 20.03 112.39 23.79 104.65C25.79 101.71 40.9 103.97 37.07 115.87C75.88 140.73 78.17 134.45 88.01 134.19C87.29 135.57 85.66 139.36 83.74 143.88L84.15 144.09Z" fill="#4484AA"/>
<path fill-rule="evenodd" clip-rule="evenodd" d="M113.11 104.73L110.81 106.4L108.81 108.4L108.53 108.06C104.53 110.95 101.23 113.4 100.06 114.4C98.06 104.76 103.67 101.11 70.64 68.96C59.47 76.19 53.34 63.61 55.84 59.3C62.21 53.36 65.94 50.99 72.36 45.3C75.36 43.36 88.44 51.21 80.36 60.74C106.76 98.52 111.27 93.58 120.46 97.1C119.29 98.1 116.32 100.98 112.84 104.42L113.11 104.73Z" fill="#4484AA"/>
<path fill-rule="evenodd" clip-rule="evenodd" d="M151.64 80.62L148.9 81.35L146.3 82.52L146.15 82.09C141.41 83.38 137.44 84.5 135.97 85.02C137.55 75.31 144.08 73.88 124.63 32.09C111.63 34.89 110.37 20.94 114.24 17.8C122.3 14.51 126.62 13.62 134.66 10.54C138.17 9.80003 147.59 21.78 136.66 27.83C147.92 72.51 153.89 69.51 161.24 76.04C159.78 76.56 155.99 78.21 151.5 80.2L151.64 80.62Z" fill="#4484AA"/>
<path fill-rule="evenodd" clip-rule="evenodd" d="M144.54 146.04L158.68 170.32C160.5 173.63 160.53 176.43 156.82 178.1L112.89 171.76C110.18 171.46 109.78 168.64 112.6 165.68L133.27 145.85C139.9 138.6 142.85 141.91 144.54 146.04Z" fill="#68C1A8"/>
<path fill-rule="evenodd" clip-rule="evenodd" d="M225.39 164.51L226.67 189.21C226.78 192.52 225.67 194.73 222.1 194.55L190.25 171.93C188.25 170.59 189.07 168.23 192.48 167.03L216.64 159.81C224.75 156.81 225.75 160.58 225.39 164.51Z" fill="#68C1A8"/>
<path fill-rule="evenodd" clip-rule="evenodd" d="M156.4 255.16L157.69 279.74C157.79 283.05 156.69 285.25 153.12 285.06L121.43 262.54C119.43 261.23 120.25 258.87 123.64 257.67L147.69 250.5C155.75 247.5 156.75 251.25 156.4 255.16Z" fill="#68C1A8"/>
<path fill-rule="evenodd" clip-rule="evenodd" d="M296.51 171.02L300.56 197.09C301.03 200.61 300.11 203.09 296.3 203.25L260.05 182.69C257.8 181.51 258.4 178.9 261.88 177.28L286.75 167C295 162.92 296.45 166.81 296.51 171.02Z" fill="#68C1A8"/>
<path fill-rule="evenodd" clip-rule="evenodd" d="M187.3 293.13L174.92 269.75C173.34 266.58 173.41 263.94 176.92 262.51L218.02 270.14C220.54 270.54 220.82 273.19 218.02 275.88L197.82 293.75C191.39 300.32 188.75 297.09 187.3 293.13Z" fill="#68C1A8"/>
<path fill-rule="evenodd" clip-rule="evenodd" d="M243.91 255.94L269.61 262.17C273.04 263.08 274.98 264.9 273.69 268.5L240.75 294.19C238.75 295.85 236.6 294.3 236.43 290.45V263.45C235.82 254.26 239.99 254.45 243.91 255.94Z" fill="#68C1A8"/>
<path fill-rule="evenodd" clip-rule="evenodd" d="M105.43 215.53L120.1 193.18C122.1 190.24 124.51 189.02 127.51 191.47L140.75 231.54C141.63 233.97 139.42 235.54 135.7 234.36L110.06 225.19C101.05 222.63 102.63 218.72 105.43 215.53Z" fill="#68C1A8"/>
<path fill-rule="evenodd" clip-rule="evenodd" d="M176.15 230.15L174.65 205.34C174.52 202.01 175.59 199.79 179.19 199.94L211.37 222.45C213.37 223.75 212.59 226.15 209.17 227.36L184.97 234.82C176.86 237.87 175.85 234.09 176.15 230.15Z" fill="#68C1A8"/>
<path fill-rule="evenodd" clip-rule="evenodd" d="M253.45 236.65L238.91 216.38C237.01 213.62 236.75 211.15 239.91 209.38L279.29 211.27C281.69 211.27 282.29 213.76 280.06 216.63L263.47 235.89C258.2 242.82 255.31 240.17 253.45 236.65Z" fill="#68C1A8"/>
<path fill-rule="evenodd" clip-rule="evenodd" d="M226.65 102.2L236.13 122.89C237.33 125.7 237.13 127.97 234.02 129.02L199.08 120.45C196.92 119.99 196.82 117.69 199.32 115.53L217.57 101.16C223.47 95.81 225.59 98.72 226.65 102.2Z" fill="#68C1A8"/>
<path fill-rule="evenodd" clip-rule="evenodd" d="M166.13 130.93L146.51 119.39C143.92 117.77 142.77 115.81 144.73 113.16L178.3 100.16C180.3 99.31 181.74 101.16 180.91 104.35L174.18 126.56C172.37 134.36 168.98 133.19 166.13 130.93Z" fill="#68C1A8"/>
<path fill-rule="evenodd" clip-rule="evenodd" d="M250.61 144.53L253.43 121.12C253.88 117.99 255.28 116.12 258.61 116.86L284.82 143.33C286.47 144.89 285.32 147 281.92 147.55L258.06 150.37C249.95 151.87 249.66 148.17 250.61 144.53Z" fill="#68C1A8"/>
</g>
<defs>
<clipPath id="clip0_41_2">
<rect width="396.2" height="394.44" fill="white"/>
</clipPath>
</defs>
</svg>
